<svg xmlns="http://www.w3.org/2000/svg" xmlns:xlink="http://www.w3.org/1999/xlink" version="1.1" data-diagram-type="CLASS" style="width:499px;height:377px;background:#FFFFFF;" width="499px" height="377px" viewBox="0 0 499 377" zoomAndPan="magnify" preserveAspectRatio="none" contentStyleType="text/css"><?plantuml 1.2026.7beta11?><defs/><g font-family="sans-serif" lengthAdjust="spacing"><!--class ScoringStrategy--><g class="entity" data-qualified-name="ScoringStrategy" id="ent0001" data-source-line="3"><rect x="135" y="164.59" width="221.337" height="72.563" fill="#F1F1F1" style="stroke:#181818;stroke-width:0.5;" rx="2.5" ry="2.5"/><ellipse cx="185.148" cy="184.723" rx="11" ry="11" fill="#B4A7E5" style="stroke:#181818;stroke-width:1;"/><path d="M181.07,180.488 L181.07,178.332 L188.461,178.332 L188.461,180.488 L185.992,180.488 L185.992,188.567 L188.461,188.567 L188.461,190.723 L181.07,190.723 L181.07,188.567 L183.539,188.567 L183.539,180.488 L181.07,180.488 Z " fill="#000"/><text x="227.817" y="180.729" fill="#000" font-size="12" textLength="68.203" font-style="italic">«interface»</text><text x="205.648" y="196.554" fill="#000" font-size="14" textLength="112.54" font-style="italic">ScoringStrategy</text><line x1="136" y1="204.856" x2="355.337" y2="204.856" style="stroke:#181818;stroke-width:0.5;"/><line x1="136" y1="212.856" x2="355.337" y2="212.856" style="stroke:#181818;stroke-width:0.5;"/><text x="141" y="229.851" fill="#000" font-size="14" textLength="209.337">+score(attempt): ScoreResult</text></g><!--class ObjectiveScoringStrategy--><g class="entity" data-qualified-name="ObjectiveScoringStrategy" id="ent0002" data-source-line="7"><rect x="7" y="298.15" width="221.337" height="64.297" fill="#F1F1F1" style="stroke:#181818;stroke-width:0.5;" rx="2.5" ry="2.5"/><ellipse cx="26.686" cy="314.15" rx="11" ry="11" fill="#ADD1B2" style="stroke:#181818;stroke-width:1;"/><path d="M29.655,319.791 Q29.077,320.088 28.436,320.228 Q27.795,320.384 27.092,320.384 Q24.592,320.384 23.264,318.744 Q21.952,317.088 21.952,313.963 Q21.952,310.838 23.264,309.181 Q24.592,307.525 27.092,307.525 Q27.795,307.525 28.436,307.681 Q29.092,307.838 29.655,308.134 L29.655,310.853 Q29.03,310.275 28.436,310.009 Q27.842,309.728 27.217,309.728 Q25.873,309.728 25.186,310.806 Q24.498,311.869 24.498,313.963 Q24.498,316.056 25.186,317.134 Q25.873,318.197 27.217,318.197 Q27.842,318.197 28.436,317.931 Q29.03,317.65 29.655,317.072 L29.655,319.791 Z " fill="#000"/><text x="41.727" y="318.997" fill="#000" font-size="14" textLength="178.924">ObjectiveScoringStrategy</text><line x1="8" y1="330.15" x2="227.337" y2="330.15" style="stroke:#181818;stroke-width:0.5;"/><line x1="8" y1="338.15" x2="227.337" y2="338.15" style="stroke:#181818;stroke-width:0.5;"/><text x="13" y="355.145" fill="#000" font-size="14" textLength="209.337">+score(attempt): ScoreResult</text></g><!--class SubjectiveScoringStrategy--><g class="entity" data-qualified-name="SubjectiveScoringStrategy" id="ent0003" data-source-line="11"><rect x="263" y="298.15" width="221.337" height="64.297" fill="#F1F1F1" style="stroke:#181818;stroke-width:0.5;" rx="2.5" ry="2.5"/><ellipse cx="279.653" cy="314.15" rx="11" ry="11" fill="#ADD1B2" style="stroke:#181818;stroke-width:1;"/><path d="M282.622,319.791 Q282.043,320.088 281.403,320.228 Q280.762,320.384 280.059,320.384 Q277.559,320.384 276.231,318.744 Q274.918,317.088 274.918,313.963 Q274.918,310.838 276.231,309.181 Q277.559,307.525 280.059,307.525 Q280.762,307.525 281.403,307.681 Q282.059,307.838 282.622,308.134 L282.622,310.853 Q281.997,310.275 281.403,310.009 Q280.809,309.728 280.184,309.728 Q278.84,309.728 278.153,310.806 Q277.465,311.869 277.465,313.963 Q277.465,316.056 278.153,317.134 Q278.84,318.197 280.184,318.197 Q280.809,318.197 281.403,317.931 Q281.997,317.65 282.622,317.072 L282.622,319.791 Z " fill="#000"/><text x="294.02" y="318.997" fill="#000" font-size="14" textLength="185.664">SubjectiveScoringStrategy</text><line x1="264" y1="330.15" x2="483.337" y2="330.15" style="stroke:#181818;stroke-width:0.5;"/><line x1="264" y1="338.15" x2="483.337" y2="338.15" style="stroke:#181818;stroke-width:0.5;"/><text x="269" y="355.145" fill="#000" font-size="14" textLength="209.337">+score(attempt): ScoreResult</text></g><!--class AssessmentService--><g class="entity" data-qualified-name="AssessmentService" id="ent0004" data-source-line="15"><rect x="147.09" y="7" width="197.151" height="80.594" fill="#F1F1F1" style="stroke:#181818;stroke-width:0.5;" rx="2.5" ry="2.5"/><ellipse cx="175.334" cy="23" rx="11" ry="11" fill="#ADD1B2" style="stroke:#181818;stroke-width:1;"/><path d="M178.303,28.641 Q177.724,28.938 177.084,29.078 Q176.443,29.234 175.74,29.234 Q173.24,29.234 171.912,27.594 Q170.599,25.938 170.599,22.813 Q170.599,19.688 171.912,18.031 Q173.24,16.375 175.74,16.375 Q176.443,16.375 177.084,16.531 Q177.74,16.688 178.303,16.984 L178.303,19.703 Q177.678,19.125 177.084,18.859 Q176.49,18.578 175.865,18.578 Q174.521,18.578 173.834,19.656 Q173.146,20.719 173.146,22.813 Q173.146,24.906 173.834,25.984 Q174.521,27.047 175.865,27.047 Q176.49,27.047 177.084,26.781 Q177.678,26.5 178.303,25.922 L178.303,28.641 Z " fill="#000"/><text x="192.277" y="27.847" fill="#000" font-size="14" textLength="135.721">AssessmentService</text><line x1="148.09" y1="39" x2="343.241" y2="39" style="stroke:#181818;stroke-width:0.5;"/><text x="153.09" y="55.995" fill="#000" font-size="14" textLength="185.151">-strategy: ScoringStrategy</text><line x1="148.09" y1="63.297" x2="343.241" y2="63.297" style="stroke:#181818;stroke-width:0.5;"/><text x="153.09" y="80.292" fill="#000" font-size="14" textLength="184.092">+submitAttempt(attempt)</text></g><!--reverse link ScoringStrategy to ObjectiveScoringStrategy--><g class="link" data-entity-1="ent0001" data-entity-2="ent0002" id="lnk5" data-source-line="20" data-link-type="extension"><path d="M197.255,250.071 C178.175,269.071 167.63,279.56 149.21,297.9" style="stroke:#181818;stroke-width:1;stroke-dasharray:7,7;" fill="none" id="ScoringStrategy-backto-ObjectiveScoringStrategy" codeLine="20"/><polygon points="210.01,237.37,193.022,245.82,201.489,254.323,210.01,237.37" fill="none" style="stroke:#181818;stroke-width:1;stroke-linejoin:miter;stroke-miterlimit:10;"/></g><!--reverse link ScoringStrategy to SubjectiveScoringStrategy--><g class="link" data-entity-1="ent0001" data-entity-2="ent0003" id="lnk6" data-source-line="21" data-link-type="extension"><path d="M294.078,250.068 C313.168,269.068 323.71,279.56 342.13,297.9" style="stroke:#181818;stroke-width:1;stroke-dasharray:7,7;" fill="none" id="ScoringStrategy-backto-SubjectiveScoringStrategy" codeLine="21"/><polygon points="281.32,237.37,289.845,254.32,298.311,245.815,281.32,237.37" fill="none" style="stroke:#181818;stroke-width:1;stroke-linejoin:miter;stroke-miterlimit:10;"/></g><!--link AssessmentService to ScoringStrategy--><g class="link" data-entity-1="ent0004" data-entity-2="ent0001" id="lnk7" data-source-line="22" data-link-type="dependency"><path d="M245.67,87.72 C245.67,111.41 245.67,136.3 245.67,159.27" style="stroke:#181818;stroke-width:1;" fill="none" id="AssessmentService-to-ScoringStrategy" codeLine="22"/><polygon points="245.67,164.27,249.67,155.27,245.67,159.27,241.67,155.27,245.67,164.27" fill="#181818" style="stroke:#181818;stroke-width:1;stroke-linejoin:miter;stroke-miterlimit:10;"/><text x="246.67" y="130.657" fill="#000" font-size="13" textLength="101.607">holds reference</text></g><?plantuml-src fP6z2i9048JxUuej5Kcm3X98QILuJt0vHprDBk5s8_ZtxcgK58a1mNfdljdPvQFpjGcc95iOvamakBmHB6tbjRk0vaevBmXROq7QLi7vdPPW1BipBHRTB4tfgeXc_9HWOaHGrZ9DMWlMuAOGTLUgJQ5LVe0LTq8V-3j2D_ypCcOmb_2Y4KxkMV3bZVX3IlfzMt2JbqwoDxWBU347nxd5yMZJx-hHKcguQXIbWtyajA-A3LF05W7UuW40?></g></svg>